<svg width="620" height="900" viewBox="0 0 620 900" fill="none" xmlns="http://www.w3.org/2000/svg">
<path d="M69.2292 7.38254C69.0781 6.17437 68.9573 6.0536 67.7183 5.87232C68.927 5.72117 69.0479 5.6004 69.2292 4.3621C69.3803 5.57028 69.5012 5.69104 70.7402 5.87232C69.5314 6.02321 69.4105 6.17437 69.2292 7.38254Z" fill="white" fill-opacity="0.1"/>
<path d="M12.2495 70.5826C12.2495 71.1999 11.7491 71.7004 11.1315 71.7004C10.5141 71.7004 10.0134 71.1999 10.0134 70.5826C10.0134 69.9655 10.5141 69.465 11.1315 69.465C11.7491 69.465 12.2495 69.9655 12.2495 70.5826Z" fill="white" fill-opacity="0.1"/>
<path d="M27.7236 10.2872C27.7236 10.9042 27.2231 11.4047 26.6055 11.4047C25.988 11.4047 25.4875 10.9042 25.4875 10.2872C25.4875 9.66983 25.988 9.16963 26.6055 9.16963C27.2231 9.16963 27.7236 9.66983 27.7236 10.2872Z" fill="white" fill-opacity="0.1"/>
<path d="M397.223 273.39C397.374 274.598 397.495 274.719 398.734 274.9C397.525 275.051 397.405 275.172 397.223 276.41C397.072 275.202 396.951 275.082 395.712 274.9C396.921 274.749 397.042 274.598 397.223 273.39Z" fill="white" fill-opacity="0.1"/>
<path d="M480.821 29.6045C480.972 30.8127 481.093 30.9335 482.332 31.1148C481.123 31.2659 481.003 31.3867 480.821 32.625C480.67 31.4168 480.549 31.296 479.31 31.1148C480.519 30.9639 480.64 30.8127 480.821 29.6045Z" fill="white" fill-opacity="0.1"/>
<path d="M467.505 196.08C467.656 197.289 467.777 197.409 469.016 197.591C467.807 197.742 467.686 197.862 467.505 199.101C467.354 197.893 467.233 197.772 465.994 197.591C467.203 197.44 467.323 197.289 467.505 196.08Z" fill="white" fill-opacity="0.1"/>
<path d="M382.057 91.028C382.208 92.2361 382.329 92.3569 383.568 92.5382C382.359 92.6893 382.238 92.8101 382.057 94.0484C381.906 92.8402 381.785 92.7195 380.546 92.5382C381.755 92.3873 381.876 92.2361 382.057 91.028Z" fill="white" fill-opacity="0.1"/>
<path d="M506.05 275.293C506.05 274.676 506.551 274.175 507.168 274.175C507.786 274.175 508.286 274.676 508.286 275.293C508.286 275.91 507.786 276.41 507.168 276.41C506.551 276.41 506.05 275.91 506.05 275.293Z" fill="white" fill-opacity="0.1"/>
<path d="M290.336 181.708C290.336 181.09 290.836 180.59 291.454 180.59C292.071 180.59 292.572 181.09 292.572 181.708C292.572 182.325 292.071 182.825 291.454 182.825C290.836 182.825 290.336 182.325 290.336 181.708Z" fill="white" fill-opacity="0.1"/>
<path d="M444.391 131.191C444.391 130.574 444.892 130.073 445.509 130.073C446.127 130.073 446.627 130.574 446.627 131.191C446.627 131.808 446.127 132.308 445.509 132.308C444.892 132.308 444.391 131.808 444.391 131.191Z" fill="white" fill-opacity="0.1"/>
<path d="M439.037 27.8279C439.037 27.2106 439.537 26.7101 440.155 26.7101C440.772 26.7101 441.273 27.2106 441.273 27.8279C441.273 28.445 440.772 28.9455 440.155 28.9455C439.537 28.9455 439.037 28.445 439.037 27.8279Z" fill="white" fill-opacity="0.1"/>
<path d="M423.563 88.1233C423.563 87.5062 424.063 87.0058 424.681 87.0058C425.298 87.0058 425.799 87.5062 425.799 88.1233C425.799 88.7406 425.298 89.2408 424.681 89.2408C424.063 89.2408 423.563 88.7406 423.563 88.1233Z" fill="white" fill-opacity="0.1"/>
<path d="M216.899 263.346C217.906 262.9 219.084 263.355 219.53 264.362C219.976 265.369 219.521 266.546 218.513 266.992C217.506 267.437 216.328 266.983 215.882 265.976C215.436 264.969 215.892 263.792 216.899 263.346Z" fill="white" fill-opacity="0.15"/>
<path d="M371.071 246.674C371.071 245.573 371.964 244.681 373.066 244.681C374.167 244.681 375.06 245.573 375.06 246.674C375.06 247.775 374.167 248.668 373.066 248.668C371.964 248.668 371.071 247.775 371.071 246.674Z" fill="white" fill-opacity="0.15"/>
<path d="M222.955 198.287C223.734 197.509 224.996 197.509 225.775 198.287C226.554 199.066 226.554 200.328 225.775 201.106C224.996 201.885 223.734 201.885 222.955 201.106C222.176 200.328 222.176 199.066 222.955 198.287Z" fill="white" fill-opacity="0.15"/>
<path d="M248.167 247.55C248.167 246.933 248.667 246.433 249.285 246.433C249.903 246.433 250.403 246.933 250.403 247.55C250.403 248.168 249.903 248.668 249.285 248.668C248.667 248.668 248.167 248.168 248.167 247.55Z" fill="white" fill-opacity="0.15"/>
<path d="M341.382 131.031C341.382 130.414 341.883 129.913 342.501 129.913C343.118 129.913 343.619 130.414 343.619 131.031C343.619 131.648 343.118 132.148 342.501 132.148C341.883 132.148 341.382 131.648 341.382 131.031Z" fill="white" fill-opacity="0.15"/>
<path d="M403.881 205.328C404.032 206.536 404.153 206.657 405.392 206.838C404.184 206.989 404.063 207.11 403.881 208.348C403.73 207.14 403.609 207.019 402.37 206.838C403.579 206.687 403.7 206.536 403.881 205.328Z" fill="white" fill-opacity="0.1"/>
<path d="M298.521 253.417C298.672 254.625 298.793 254.746 300.032 254.927C298.823 255.078 298.702 255.199 298.521 256.437C298.37 255.229 298.249 255.108 297.01 254.927C298.219 254.776 298.34 254.625 298.521 253.417Z" fill="white" fill-opacity="0.1"/>
<path d="M375.091 127.28C375.242 128.488 375.363 128.609 376.602 128.79C375.393 128.941 375.272 129.062 375.091 130.3C374.94 129.092 374.819 128.971 373.58 128.79C374.789 128.639 374.91 128.488 375.091 127.28Z" fill="white" fill-opacity="0.1"/>
<path d="M442.783 242.319C442.934 243.528 443.055 243.648 444.294 243.83C443.085 243.981 442.964 244.102 442.783 245.34C442.632 244.132 442.511 244.011 441.272 243.83C442.481 243.679 442.602 243.528 442.783 242.319Z" fill="white" fill-opacity="0.1"/>
<path d="M534.659 476.202C534.809 474.994 534.93 474.873 536.169 474.692C534.961 474.54 534.84 474.42 534.659 473.181C534.507 474.39 534.386 474.51 533.148 474.692C534.356 474.843 534.477 474.994 534.659 476.202Z" fill="white" fill-opacity="0.1"/>
<path d="M618.302 618.362C618.453 617.154 618.574 617.033 619.813 616.852C618.604 616.7 618.484 616.58 618.302 615.341C618.151 616.55 618.03 616.67 616.791 616.852C618 617.003 618.121 617.154 618.302 618.362Z" fill="white" fill-opacity="0.1"/>
<path d="M522.063 610.025C522.214 608.816 522.335 608.696 523.574 608.514C522.365 608.363 522.244 608.243 522.063 607.004C521.912 608.212 521.791 608.333 520.552 608.514C521.76 608.665 521.881 608.816 522.063 610.025Z" fill="white" fill-opacity="0.1"/>
<path d="M357.231 518.139C357.382 516.931 357.503 516.81 358.742 516.629C357.533 516.478 357.412 516.357 357.231 515.119C357.08 516.327 356.959 516.448 355.72 516.629C356.929 516.78 357.05 516.931 357.231 518.139Z" fill="white" fill-opacity="0.1"/>
<path d="M445.944 422.196C446.095 420.988 446.216 420.867 447.455 420.686C446.246 420.534 446.125 420.414 445.944 419.175C445.793 420.383 445.672 420.504 444.433 420.686C445.641 420.836 445.762 420.988 445.944 422.196Z" fill="white" fill-opacity="0.1"/>
<path d="M465.152 468.203C465.152 468.82 465.653 469.32 466.27 469.32C466.888 469.32 467.388 468.82 467.388 468.203C467.388 467.585 466.888 467.085 466.27 467.085C465.653 467.085 465.152 467.585 465.152 468.203Z" fill="white" fill-opacity="0.1"/>
<path d="M299.061 576.068C299.061 576.685 299.561 577.185 300.179 577.185C300.796 577.185 301.297 576.685 301.297 576.068C301.297 575.45 300.796 574.95 300.179 574.95C299.561 574.95 299.061 575.45 299.061 576.068Z" fill="white" fill-opacity="0.1"/>
<path d="M555.773 500.607C555.773 501.224 556.274 501.725 556.892 501.725C557.509 501.725 558.01 501.224 558.01 500.607C558.01 499.99 557.509 499.49 556.892 499.49C556.274 499.49 555.773 499.99 555.773 500.607Z" fill="white" fill-opacity="0.1"/>
<path d="M344.594 418.118C344.594 418.735 345.095 419.235 345.713 419.235C346.33 419.235 346.831 418.735 346.831 418.118C346.831 417.5 346.33 417 345.713 417C345.095 417 344.594 417.5 344.594 418.118Z" fill="white" fill-opacity="0.1"/>
<path d="M582.406 543.886C582.406 544.503 582.907 545.003 583.525 545.003C584.142 545.003 584.643 544.503 584.643 543.886C584.643 543.269 584.142 542.768 583.525 542.768C582.907 542.768 582.406 543.269 582.406 543.886Z" fill="white" fill-opacity="0.1"/>
<path d="M547.618 633.133C547.618 633.751 548.118 634.251 548.736 634.251C549.353 634.251 549.854 633.751 549.854 633.133C549.854 632.516 549.353 632.016 548.736 632.016C548.118 632.016 547.618 632.516 547.618 633.133Z" fill="white" fill-opacity="0.1"/>
<path d="M527.599 524.651C527.599 525.268 528.099 525.769 528.717 525.769C529.335 525.769 529.835 525.268 529.835 524.651C529.835 524.034 529.335 523.534 528.717 523.534C528.099 523.534 527.599 524.034 527.599 524.651Z" fill="white" fill-opacity="0.1"/>
<path d="M543.275 568.136C544.282 568.582 545.46 568.127 545.906 567.12C546.352 566.114 545.897 564.936 544.889 564.49C543.882 564.045 542.704 564.5 542.258 565.506C541.812 566.513 542.268 567.69 543.275 568.136Z" fill="white" fill-opacity="0.15"/>
<path d="M396.571 562.59C396.571 563.691 397.464 564.584 398.565 564.584C399.667 564.584 400.56 563.691 400.56 562.59C400.56 561.489 399.667 560.597 398.565 560.597C397.464 560.597 396.571 561.489 396.571 562.59Z" fill="white" fill-opacity="0.15"/>
<path d="M462.71 529.624C463.489 530.402 464.752 530.402 465.531 529.624C466.31 528.845 466.31 527.583 465.531 526.805C464.752 526.026 463.489 526.026 462.71 526.805C461.931 527.583 461.931 528.845 462.71 529.624Z" fill="white" fill-opacity="0.15"/>
<path d="M534.627 426.997C534.627 427.614 535.128 428.114 535.745 428.114C536.363 428.114 536.863 427.614 536.863 426.997C536.863 426.38 536.363 425.879 535.745 425.879C535.128 425.879 534.627 426.38 534.627 426.997Z" fill="white" fill-opacity="0.15"/>
<path d="M412.251 458.068C412.251 458.685 412.752 459.186 413.369 459.186C413.987 459.186 414.487 458.685 414.487 458.068C414.487 457.451 413.987 456.951 413.369 456.951C412.752 456.951 412.251 457.451 412.251 458.068Z" fill="white" fill-opacity="0.15"/>
<path d="M400.673 632.061C400.825 630.852 400.945 630.732 402.184 630.55C400.976 630.399 400.855 630.278 400.673 629.04C400.522 630.248 400.402 630.369 399.163 630.55C400.371 630.701 400.492 630.852 400.673 632.061Z" fill="white" fill-opacity="0.1"/>
<path d="M313.149 489.148C313.3 487.94 313.42 487.819 314.659 487.638C313.451 487.487 313.33 487.366 313.149 486.128C312.997 487.336 312.877 487.456 311.638 487.638C312.846 487.789 312.967 487.94 313.149 489.148Z" fill="white" fill-opacity="0.1"/>
<path d="M257.51 541.768C257.661 540.56 257.782 540.439 259.021 540.258C257.812 540.107 257.692 539.986 257.51 538.747C257.359 539.956 257.238 540.076 255.999 540.258C257.208 540.409 257.329 540.56 257.51 541.768Z" fill="white" fill-opacity="0.1"/>
<path d="M259.657 796.117C259.808 797.325 259.929 797.446 261.167 797.627C259.959 797.778 259.838 797.899 259.657 799.137C259.505 797.929 259.384 797.808 258.146 797.627C259.354 797.476 259.475 797.325 259.657 796.117Z" fill="white" fill-opacity="0.1"/>
<path d="M343.3 653.957C343.451 655.165 343.572 655.286 344.811 655.467C343.603 655.618 343.482 655.739 343.3 656.977C343.149 655.769 343.028 655.648 341.789 655.467C342.998 655.316 343.119 655.165 343.3 653.957Z" fill="white" fill-opacity="0.1"/>
<path d="M247.061 662.294C247.212 663.502 247.333 663.623 248.572 663.804C247.363 663.956 247.242 664.076 247.061 665.315C246.91 664.106 246.789 663.986 245.55 663.804C246.759 663.654 246.879 663.502 247.061 662.294Z" fill="white" fill-opacity="0.1"/>
<path d="M47.7641 596C47.9152 597.208 48.036 597.329 49.275 597.51C48.0663 597.661 47.9454 597.782 47.7641 599.02C47.613 597.812 47.4921 597.691 46.2531 597.51C47.4619 597.359 47.5827 597.208 47.7641 596Z" fill="white" fill-opacity="0.1"/>
<path d="M170.942 850.123C171.093 851.331 171.214 851.452 172.453 851.633C171.244 851.784 171.123 851.905 170.942 853.144C170.791 851.935 170.67 851.815 169.431 851.633C170.64 851.482 170.76 851.331 170.942 850.123Z" fill="white" fill-opacity="0.1"/>
<path d="M190.15 804.116C190.15 803.499 190.651 802.999 191.269 802.999C191.886 802.999 192.387 803.499 192.387 804.116C192.387 804.733 191.886 805.234 191.269 805.234C190.651 805.234 190.15 804.733 190.15 804.116Z" fill="white" fill-opacity="0.1"/>
<path d="M24.059 696.251C24.059 695.634 24.5594 695.134 25.177 695.134C25.7946 695.134 26.2951 695.634 26.2951 696.251C26.2951 696.869 25.7946 697.369 25.177 697.369C24.5594 697.369 24.059 696.869 24.059 696.251Z" fill="white" fill-opacity="0.1"/>
<path d="M280.772 771.712C280.772 771.095 281.272 770.594 281.89 770.594C282.507 770.594 283.008 771.095 283.008 771.712C283.008 772.329 282.507 772.829 281.89 772.829C281.272 772.829 280.772 772.329 280.772 771.712Z" fill="white" fill-opacity="0.1"/>
<path d="M69.5925 854.201C69.5925 853.584 70.0933 853.084 70.7109 853.084C71.3282 853.084 71.8289 853.584 71.8289 854.201C71.8289 854.819 71.3282 855.319 70.7109 855.319C70.0933 855.319 69.5925 854.819 69.5925 854.201Z" fill="white" fill-opacity="0.1"/>
<path d="M307.405 728.433C307.405 727.816 307.905 727.315 308.523 727.315C309.14 727.315 309.641 727.816 309.641 728.433C309.641 729.05 309.14 729.55 308.523 729.55C307.905 729.55 307.405 729.05 307.405 728.433Z" fill="white" fill-opacity="0.1"/>
<path d="M272.616 639.185C272.616 638.568 273.116 638.068 273.734 638.068C274.351 638.068 274.852 638.568 274.852 639.185C274.852 639.803 274.351 640.303 273.734 640.303C273.116 640.303 272.616 639.803 272.616 639.185Z" fill="white" fill-opacity="0.1"/>
<path d="M252.597 747.668C252.597 747.05 253.098 746.55 253.715 746.55C254.333 746.55 254.833 747.05 254.833 747.668C254.833 748.285 254.333 748.785 253.715 748.785C253.098 748.785 252.597 748.285 252.597 747.668Z" fill="white" fill-opacity="0.1"/>
<path d="M268.273 704.183C269.28 703.737 270.458 704.192 270.904 705.199C271.35 706.205 270.895 707.383 269.887 707.828C268.88 708.274 267.702 707.819 267.256 706.812C266.81 705.806 267.266 704.629 268.273 704.183Z" fill="white" fill-opacity="0.15"/>
<path d="M121.569 709.728C121.569 708.627 122.462 707.735 123.563 707.735C124.665 707.735 125.558 708.627 125.558 709.728C125.558 710.829 124.665 711.722 123.563 711.722C122.462 711.722 121.569 710.829 121.569 709.728Z" fill="white" fill-opacity="0.15"/>
<path d="M187.708 742.695C188.487 741.917 189.75 741.917 190.529 742.695C191.308 743.474 191.308 744.736 190.529 745.514C189.75 746.293 188.487 746.293 187.708 745.514C186.93 744.736 186.93 743.474 187.708 742.695Z" fill="white" fill-opacity="0.15"/>
<path d="M259.625 845.322C259.625 844.705 260.126 844.204 260.743 844.204C261.361 844.204 261.861 844.705 261.861 845.322C261.861 845.939 261.361 846.439 260.743 846.439C260.126 846.439 259.625 845.939 259.625 845.322Z" fill="white" fill-opacity="0.15"/>
<path d="M137.249 814.251C137.249 813.634 137.75 813.133 138.367 813.133C138.985 813.133 139.485 813.634 139.485 814.251C139.485 814.868 138.985 815.368 138.367 815.368C137.75 815.368 137.249 814.868 137.249 814.251Z" fill="white" fill-opacity="0.15"/>
<path d="M125.672 640.258C125.823 641.466 125.944 641.587 127.183 641.769C125.974 641.92 125.853 642.04 125.672 643.279C125.521 642.071 125.4 641.95 124.161 641.769C125.369 641.618 125.49 641.466 125.672 640.258Z" fill="white" fill-opacity="0.1"/>
<path d="M38.1466 783.171C38.2977 784.379 38.4186 784.5 39.6576 784.681C38.4488 784.832 38.3279 784.953 38.1466 786.191C37.9955 784.983 37.8747 784.862 36.6357 784.681C37.8444 784.53 37.9653 784.379 38.1466 783.171Z" fill="white" fill-opacity="0.1"/>
</svg>
