<svg width="161" height="49" viewBox="0 0 161 49" fill="none" xmlns="http://www.w3.org/2000/svg">
<path fill-rule="evenodd" clip-rule="evenodd" d="M0 11.0949C0 5.15144 4.81813 0.333313 10.7616 0.333313H51.6117C57.5552 0.333313 62.3733 5.15144 62.3733 11.0949C62.3733 17.0384 57.5552 21.8565 51.6117 21.8565H35.64C34.2721 21.8565 33.1632 22.9654 33.1632 24.3333C33.1632 25.7012 34.2721 26.8101 35.64 26.8101H150.003C155.947 26.8101 160.765 31.6283 160.765 37.5717C160.765 43.5152 155.947 48.3333 150.003 48.3333H10.7616C4.81817 48.3333 4.88281e-05 43.5152 4.88281e-05 37.5717C4.88281e-05 31.6283 4.81818 26.8101 10.7616 26.8101H26.7332C28.1011 26.8101 29.21 25.7012 29.21 24.3333C29.21 22.9654 28.1011 21.8565 26.7332 21.8565H10.7616C4.81813 21.8565 0 17.0384 0 11.0949ZM63.7516 42.2188C62.9974 42.2188 62.4076 42.1128 61.9835 41.8981C61.5581 41.6847 61.2612 41.3653 61.0916 40.9372C60.9219 40.5104 60.8371 39.9829 60.8371 39.352V35.7829C60.8371 34.7584 61.0651 34.0029 61.5223 33.5178C61.9782 33.0327 62.7218 32.7889 63.7529 32.7889H68.5467C69.2796 32.7889 69.8389 32.8286 70.2273 32.9095C70.6143 32.989 70.8091 33.0725 70.8091 33.1573L70.491 34.4853C70.3108 34.4535 69.7766 34.4191 68.89 34.3806C68.0033 34.3435 66.7164 34.325 65.0279 34.325H64.2154C63.3659 34.325 62.9418 34.704 62.9418 35.4621V39.5442C62.9418 39.9074 63.0345 40.187 63.2201 40.3845C63.4056 40.582 63.7383 40.68 64.2154 40.68H64.8688C66.6316 40.68 67.9993 40.6615 68.9708 40.6244C69.9423 40.5873 70.5453 40.5475 70.7786 40.5038L71.432 41.5601C71.432 41.6131 71.3445 41.6939 71.1696 41.8C70.9946 41.9073 70.6726 42.0028 70.2061 42.0876C69.7382 42.1724 69.0649 42.2161 68.1836 42.2161H63.7555L63.7516 42.2188ZM28.2322 42.2187V34.0877L28.0732 32.7915H35.1294C35.8093 32.7915 36.3421 32.8829 36.7304 33.0632C37.1174 33.2447 37.405 33.482 37.5906 33.7749C37.7761 34.0691 37.8954 34.3806 37.9484 34.7119C38.0014 35.0432 38.0279 35.3573 38.0279 35.6569V36.6019C38.0279 36.847 37.9908 37.1227 37.9166 37.4262C37.8424 37.7297 37.7045 38.024 37.5031 38.3063C37.3016 38.5886 37.0087 38.8245 36.627 39.01C36.2453 39.1969 35.7457 39.2897 35.1294 39.2897H33.5045C32.8352 39.2897 32.2109 39.2738 31.6331 39.242C31.0539 39.2102 30.6218 39.1837 30.3356 39.1624V42.22H28.2335L28.2322 42.2187ZM30.3342 37.7523H34.6668C35.1453 37.7523 35.474 37.6343 35.6542 37.3997C35.8345 37.1651 35.9246 36.8828 35.9246 36.5515V35.5429C35.9246 35.201 35.8345 34.9134 35.6542 34.6788C35.474 34.4442 35.1492 34.3262 34.6827 34.3262H30.3342V37.7523ZM13.0358 42.2187C12.3135 42.2187 11.7833 42.1869 11.4427 42.1232C11.1034 42.0596 10.9324 41.9841 10.9324 41.8993L11.5699 40.5063C11.8138 40.5487 12.4221 40.5885 13.3936 40.6269C14.3651 40.664 15.7011 40.6826 17.4002 40.6826H17.7024C18.1583 40.6826 18.483 40.6004 18.6739 40.4347C18.8647 40.2691 18.9601 39.9894 18.9601 39.5945V39.2737C18.9601 38.9 18.8833 38.6336 18.7295 38.4732C18.5758 38.3128 18.2325 38.2333 17.7024 38.2333H14.0073C12.9351 38.2333 12.1544 38.0332 11.6654 37.6329C11.1763 37.2327 10.9324 36.5793 10.9324 35.6714V35.4156C10.9324 34.9464 11.0199 34.5144 11.1949 34.1194C11.3698 33.7245 11.6693 33.4077 12.0948 33.1665C12.5189 32.9266 13.1034 32.806 13.8469 32.806H18.1795C18.9018 32.806 19.485 32.8431 19.9316 32.9186C20.3783 32.9929 20.6009 33.0737 20.6009 33.1585L20.2828 34.5038C20.0072 34.472 19.3803 34.4375 18.4035 34.3991C17.4267 34.3619 16.1146 34.3434 14.4685 34.3434L14.2936 34.3275C13.8045 34.3275 13.4758 34.4269 13.3062 34.623C13.1365 34.8205 13.0451 35.0684 13.0358 35.3679V35.6396C13.0358 35.9921 13.1339 36.2559 13.33 36.4322C13.5262 36.6084 13.8535 36.6959 14.3095 36.6959H17.8455C18.5254 36.6959 19.1046 36.7648 19.5817 36.904C20.0602 37.0431 20.426 37.2963 20.6804 37.6647C20.9349 38.0332 21.0621 38.5753 21.0621 39.2896V39.5454C21.0621 40.3459 20.858 40.9914 20.4485 41.4818C20.039 41.9721 19.3312 42.2187 18.3226 42.2187H13.0358ZM47.4725 32.806L42.8059 42.2187H45.1306L46.1657 40.1856H51.8687L52.8084 42.2187H55.2616L50.6109 32.806H47.4725ZM51.2802 38.6177H46.7422L48.9397 34.248H49.0987L51.2802 38.6177ZM77.8007 32.806V42.2187H86.4977C87.1988 42.2187 87.6932 42.2001 87.9795 42.163C88.2657 42.1246 88.4089 42.0848 88.4089 42.0424L87.7714 40.6812H79.9027V38.1366H85.8602V36.5514H79.9027V34.3421H87.7078V32.806H77.8007ZM97.9819 42.2187L97.966 34.3275H93.8243V32.7915H104.242V34.3275H100.084V42.2187H97.9819ZM110.613 32.806V42.2187H112.715V32.806H110.613ZM120.202 42.2188V34.0878L120.043 32.8075H122.464L126.064 39.2103L129.791 32.8075H131.94V42.2202H129.838V36.2494H129.663L129.042 37.6424L127.035 41.2606H125.108L123.101 37.6424L122.464 36.2494H122.305V42.2202H120.203L120.202 42.2188ZM139.268 32.806V42.2187H147.965C148.666 42.2187 149.16 42.2001 149.447 42.163C149.733 42.1246 149.876 42.0848 149.876 42.0424L149.239 40.6812H141.37V38.1366H147.327V36.5514H141.37V34.3421H149.175V32.806H139.268ZM13.9613 8.56582V10.8419V10.8432L10.9265 12.0686L13.9613 13.3001V15.5787L8.04073 13.2402H8.02851V10.9055H8.04073L13.9613 8.56582ZM48.4541 15.4577V13.1828L51.4865 11.9586L48.4541 10.7344V8.45832L54.3662 10.7955H54.3808V13.1327H54.3662L48.4541 15.4577ZM45.9153 5.24145L42.4382 17.0961H44.503L47.9801 5.24145H45.9153ZM23.5216 10.6527C23.5583 9.72534 23.2492 8.82125 22.6615 8.13585H22.6628C22.372 7.81208 22.0189 7.55796 21.6279 7.39058C21.237 7.2232 20.8179 7.14745 20.3964 7.16578C19.9444 7.14501 19.4935 7.2232 19.0708 7.39424C18.6481 7.56529 18.262 7.82674 17.9382 8.1615V7.41257H15.8735V15.7021H17.9382V12.0308C17.9382 10.1261 18.5846 9.17433 19.8772 9.17433C20.0934 9.16456 20.3097 9.20732 20.5088 9.29895C20.7067 9.39058 20.8839 9.52986 21.0256 9.70457C21.3274 10.1041 21.4813 10.6062 21.4569 11.1169V15.7021H23.5216V10.6527ZM26.1497 3.96489V15.8195H28.2144V3.96489H26.1497ZM38.1583 15.3846H39.8798L42.7765 7.08034H40.57L38.9439 12.0626L37.2689 7.08034H35.6586L33.9836 12.0468L32.3574 7.08034H30.151L33.0453 15.3846H34.7655L36.4698 10.5012L38.1583 15.3846Z" fill="url(#paint0_linear_19_262)"/>
<defs>
<linearGradient id="paint0_linear_19_262" x1="12.8968" y1="0.333313" x2="200.883" y2="58.8389" gradientUnits="userSpaceOnUse">
<stop offset="0.251308" stop-color="#996DFF"/>
<stop offset="0.623787" stop-color="#FF876E"/>
<stop offset="1" stop-color="#FFD072"/>
</linearGradient>
</defs>
</svg>
